<mxfile host="app.diagrams.net" modified="2024-06-21T11:40:21.520Z" agent="Mozilla/5.0 (Windows NT 10.0; Win64; x64) AppleWebKit/537.36 (KHTML, like Gecko) Chrome/126.0.0.0 Safari/537.36" version="24.6.0" etag="yxEhOtINJcEafzdWNU7t" type="github">
  <diagram name="StrÃ¡nka-1" id="oZLOpLgji4Mf-mIsEEb-">
    <mxGraphModel>
      <root>
        <mxCell id="0" />
        <mxCell id="1" parent="0" />
      </root>
    </mxGraphModel>
  </diagram>
</mxfile>
